<svg xmlns="http://www.w3.org/2000/svg" width="181" height="54" viewBox="0 0 181 54" fill="none">
  <g clip-path="url(#clip0_376_1018)">
    <path d="M120.302 0H0V30.0554H120.302V0Z" fill="white"/>
    <path d="M181 23.9446H22.9415V54H181V23.9446Z" fill="white"/>
    <path d="M13.0668 7.24444C16.3715 7.24444 17.1214 9.48674 17.1214 11.5812V12.0925H14.8971V11.5812C14.8971 10.8789 14.8336 9.42514 13.0668 9.42514C11.3001 9.42514 11.262 10.7496 11.262 11.2424V11.3286C11.262 12.5668 12.0564 13.189 13.2448 13.7188C15.6216 14.7845 17.1214 15.4683 17.1214 18.3081C17.1214 20.6798 16.0665 22.4908 13.0668 22.4908C9.76219 22.4908 9.01228 20.2485 9.01228 18.1541V16.8297H11.2366V18.1541C11.2366 18.8563 11.3001 20.3102 13.0668 20.3102C14.8336 20.3102 14.8717 18.9857 14.8717 18.4929V18.4067C14.8717 17.3409 14.4777 16.7188 12.8889 16.035C10.5121 15.0124 9.01228 14.0699 9.01228 11.421C9.01228 8.98777 10.2452 7.23828 13.0668 7.23828V7.24444Z" fill="black"/>
    <path d="M20.4709 7.52173H28.6245V9.74555H22.8985V13.762H27.9191V15.9858H22.8985V20.0022H28.6245V22.226H20.4709V7.52173Z" fill="black"/>
    <path d="M35.9767 7.24438C39.2623 7.24438 40.0313 9.57293 40.0313 11.5811V12.2218H37.7371V11.5811C37.7371 10.9651 37.718 9.44356 35.9767 9.44356C34.2354 9.44356 34.2163 10.959 34.2163 11.5811V18.1602C34.2163 18.7824 34.2354 20.2978 35.9767 20.2978C37.718 20.2978 37.7371 18.7824 37.7371 18.1602V17.5011H40.0313V18.1602C40.0313 20.6797 38.7094 22.497 35.9767 22.497C32.7165 22.497 31.9221 20.1499 31.9221 18.1602V11.5811C31.9221 9.04315 33.244 7.24438 35.9767 7.24438Z" fill="black"/>
    <path d="M43.3364 22.2137V7.52173H47.105C50.3016 7.52173 51.6235 9.42522 51.6235 11.877C51.6235 13.6511 50.9435 15.1419 49.3293 15.8256L51.579 22.2137H49.1132L47.0669 16.2322H45.637V22.2137H43.3428H43.3364ZM45.6306 14.1008H47.105C49.0878 14.1008 49.3102 12.4991 49.3102 11.877C49.3102 11.2548 49.0878 9.65315 47.105 9.65315H45.6306V14.0946V14.1008Z" fill="black"/>
    <path d="M54.832 7.52173H62.9856V9.74555H57.2597V13.762H62.2802V15.9858H57.2597V20.0022H62.9856V22.226H54.832V7.52173Z" fill="black"/>
    <path d="M66.2464 7.52173H74.4445V9.80715H71.5593V22.2137H69.138V9.80715H66.2528V7.52173H66.2464Z" fill="black"/>
    <path d="M81.5746 22.2135L83.907 7.52148H87.7836L90.1159 22.2135H87.8027L87.3642 19.3305H84.3264L83.8879 22.2135H81.5746ZM87.0146 17.2361L85.8453 9.60978L84.6759 17.2361H87.0083H87.0146Z" fill="black"/>
    <path d="M93.2045 22.2135V7.52148H96.9731C100.17 7.52148 101.492 9.42498 101.492 11.8767C101.492 13.6508 100.812 15.1416 99.1974 15.8254L101.447 22.2135H98.9813L96.9349 16.232H95.505V22.2135H93.2108H93.2045ZM95.4987 14.1005H96.9731C98.9559 14.1005 99.1783 12.4989 99.1783 11.8767C99.1783 11.2545 98.9559 9.6529 96.9731 9.6529H95.4987V14.0944V14.1005Z" fill="black"/>
    <path d="M103.779 7.52148H111.977V9.80691H109.092V22.2135H106.671V9.80691H103.785V7.52148H103.779Z" fill="black"/>
    <path d="M33.1358 31.2136H41.3339V33.499H38.4486V45.9056H36.0273V33.499H33.1421V31.2136H33.1358Z" fill="black"/>
    <path d="M45.5288 31.2139L47.5307 37.2385L49.5325 31.2139H51.9348L48.7381 40.719V45.9059H46.3168V40.719L43.1202 31.2139H45.5225H45.5288Z" fill="black"/>
    <path d="M53.9102 45.9059V31.2139H57.7678C60.9644 31.2139 62.2863 33.1174 62.2863 35.5691C62.2863 38.0209 60.9644 39.9243 57.7678 39.9243H56.2044V45.9059H53.9102ZM56.2044 37.7929H57.7678C59.7506 37.7929 59.973 36.1913 59.973 35.5691C59.973 34.9469 59.7506 33.3453 57.7678 33.3453H56.2044V37.7868V37.7929Z" fill="black"/>
    <path d="M71.8257 31.2136V33.3943H68.985V43.7311H71.8257V45.9118H63.7166V43.7311H66.5573V33.3943H63.7166V31.2136H71.8257Z" fill="black"/>
    <path d="M77.0366 31.2139L80.5637 39.8874V31.2139H82.8579V45.9059H80.5637L77.0366 37.2323V45.9059H74.7424V31.2139H77.0366Z" fill="black"/>
    <path d="M85.7504 35.2733C85.7504 32.7353 87.0723 30.9365 89.805 30.9365C93.2177 30.9365 93.8595 33.2651 93.8595 35.2733V35.532H91.5653V35.2733C91.5653 34.6326 91.5463 33.0926 89.805 33.0926C88.0637 33.0926 88.0446 34.6326 88.0446 35.2733V41.8523C88.0446 42.4745 88.0637 44.0084 89.805 44.0084C91.5463 44.0084 91.5653 42.4683 91.5653 41.8523V39.6716H89.805V37.4909H93.8595V41.8462C93.8595 44.3903 92.5377 46.1829 89.805 46.1829C86.5448 46.1829 85.7504 43.8359 85.7504 41.8462V35.2671V35.2733Z" fill="black"/>
    <path d="M100.939 35.2733C100.939 32.7353 102.261 30.9365 104.994 30.9365C108.406 30.9365 109.048 33.2651 109.048 35.2733V35.532H106.754V35.2733C106.754 34.6326 106.735 33.0926 104.994 33.0926C103.252 33.0926 103.233 34.6326 103.233 35.2733V41.8523C103.233 42.4745 103.252 44.0084 104.994 44.0084C106.735 44.0084 106.754 42.4683 106.754 41.8523V39.6716H104.994V37.4909H109.048V41.8462C109.048 44.3903 107.726 46.1829 104.994 46.1829C101.733 46.1829 100.939 43.8359 100.939 41.8462V35.2671V35.2733Z" fill="black"/>
    <path d="M111.291 45.9059L113.623 31.2139H117.5L119.832 45.9059H117.519L117.081 43.0229H114.043L113.604 45.9059H111.291ZM116.731 40.9285L115.562 33.3022L114.392 40.9285H116.725H116.731Z" fill="black"/>
    <path d="M122.089 31.2139H124.51V43.5588H130.192V45.9059H122.083V31.2139H122.089Z" fill="black"/>
    <path d="M132.663 31.2139H135.084V43.5588H140.766V45.9059H132.657V31.2139H132.663Z" fill="black"/>
    <path d="M143.239 31.2139H151.392V33.4377H145.666V37.4541H150.687V39.6779H145.666V43.6944H151.392V45.9182H143.239V31.2262V31.2139Z" fill="black"/>
    <path d="M153.763 45.9056V31.2136H157.531C160.728 31.2136 162.05 33.1171 162.05 35.5689C162.05 37.343 161.363 38.8337 159.756 39.5175L162.005 45.9056H159.539L157.493 39.9241H156.063V45.9056H153.769H153.763ZM156.057 37.7927H157.531C159.514 37.7927 159.736 36.191 159.736 35.5689C159.736 34.9467 159.514 33.345 157.531 33.345H156.057V37.7865V37.7927Z" fill="black"/>
    <path d="M166.435 31.2139L168.437 37.2385L170.445 31.2139H172.847L169.651 40.719V45.9059H167.229V40.719L164.033 31.2139H166.435Z" fill="black"/>
  </g>
  <defs>
    <clipPath id="clip0_376_1018">
      <rect width="181" height="54" fill="white"/>
    </clipPath>
  </defs>
</svg>